<svg width="580" height="400" xmlns="http://www.w3.org/2000/svg">
 <!-- Created with Method Draw - http://github.com/duopixel/Method-Draw/ -->
 <defs>
  <linearGradient y2="0" x2="1" y1="0" x1="0" id="svg_1">
   <stop offset="0" stop-opacity="0" stop-color="#0f0f00"/>
   <stop offset="0.605469" stop-opacity="0.996094" stop-color="#000000"/>
  </linearGradient>
  <linearGradient id="svg_20">
   <stop offset="0" stop-opacity="0.996094" stop-color="#7791c6"/>
   <stop offset="1" stop-opacity="0.996094" stop-color="#2c35a3"/>
  </linearGradient>
  <linearGradient y2="0" x2="0" y1="1" x1="0" id="svg_21">
   <stop offset="0" stop-opacity="0.996094" stop-color="#7791c6"/>
   <stop offset="1" stop-opacity="0.996094" stop-color="#2c35a3"/>
  </linearGradient>
  <linearGradient y2="0" x2="0" y1="0" x1="1" id="svg_22">
   <stop offset="0" stop-opacity="0.996094" stop-color="#7791c6"/>
   <stop offset="1" stop-opacity="0.996094" stop-color="#2c35a3"/>
  </linearGradient>
 </defs>
 <g>
  <title>Layer 1</title>
  <path d="m174,184c7,74 8,95 11,105c3,10 96,39 99,39c3,0 79,-31 80,-36c1,-5 18,-30 25,-37c7,-7 8,-6 18,-16c10,-10 6,-23 6,-36c0,-13 -12,-8 -19,-8c-7,0 -23,-84 -36,-83c-13,1 -123,-3 -129,-2c-6,1 -3,-9 -10,-2c-7,7 -52,2 -45,76z" id="svg_4" stroke-width="1.5" stroke="#0f0f00" fill="#fff5ed"/>
  <path id="svg_5" d="m265,294c18,3 39,1 44,-3" stroke-opacity="null" stroke-width="1.5" stroke="#0f0f00" fill="#fff5ed"/>
  <path id="svg_9" d="m305,207.5c14,-10 18,-15 39,-15c21,0 34,10 34,13" fill-opacity="null" stroke-opacity="null" stroke-width="4" stroke="#0f0f00" fill="#fff5ed"/>
  <path id="svg_10" d="m305,207.5c14,-10 18,-15 39,-15c21,0 34,10 34,13" fill-opacity="null" stroke-opacity="null" stroke-width="4" stroke="#0f0f00" fill="#fff5ed"/>
  <path id="svg_11" d="m187,210.5c14,-10 18,-15 39,-15c21,0 34,10 34,13" fill-opacity="null" stroke-opacity="null" stroke-width="4" stroke="#0f0f00" fill="#fff5ed"/>
  <path id="svg_16" d="m144,110" opacity="0.5" fill-opacity="null" stroke-opacity="null" stroke-width="1.5" stroke="#0f0f00" fill="#fff5ed"/>
  <path stroke="#0f0f00" id="svg_17" d="m149.75,172.866058c3,65 5,74 5,72c0,-2 9,-53 9,-54c0,-1 9,40 8,37c-1,-3 28,-62 28,-62c0,0 45,-17 45,-13c0,4 -5,31 -3,28c2,-3 29,-23 29,-23c0,0 69,-4 69,-2c0,2 38,20 38,22c0,2 -17,28 -17,28c0,0 10,-5 10,-5c0,0 -8,24 -8,24c0,0 21,-3 38,-14c17,-11 17,-25 17,-25c0,0 26,3 26,2c0,-1 -33,-60 -33,-59c0,1 -11,-65.000015 -64,-80.000015c-53,-15.000008 -88,-2.999992 -120,6.000008c-32,9 -62,50.000008 -69,69.000008c-7,19 -11,-16 -8,49z" stroke-opacity="null" stroke-width="1.5" fill="#bf00bf"/>
 </g>
</svg>